<svg width="38" height="38" viewBox="0 0 38 38" fill="none" xmlns="http://www.w3.org/2000/svg">
<path d="M36.1 4.43335H1.9C0.850695 4.43335 0 5.28397 0 6.33335V31.6667C0 32.716 0.850621 33.5667 1.9 33.5667H36.1C37.1493 33.5667 38 32.716 38 31.6667V6.33335C38 5.28404 37.1494 4.43335 36.1 4.43335ZM36.7333 31.6667C36.7333 32.0165 36.4498 32.3 36.1 32.3H1.9C1.55021 32.3 1.26669 32.0165 1.26669 31.6667V6.33335C1.26669 5.98356 1.55021 5.70004 1.9 5.70004H36.1C36.4498 5.70004 36.7333 5.98356 36.7333 6.33335V31.6667Z" fill="#375061"/>
<path d="M34.8885 6.969C34.7211 6.95438 34.5548 7.00685 34.4261 7.11491L19.8151 19.3888C19.3439 19.785 18.6561 19.785 18.1849 19.3888L3.57393 7.11484C3.40063 6.96937 3.16283 6.92736 2.9502 7.0047C2.73756 7.08203 2.5823 7.26699 2.54296 7.48987C2.50362 7.71274 2.58616 7.93963 2.75946 8.0851L17.3705 20.3584C18.3121 21.1513 19.6879 21.1513 20.6296 20.3584L35.2406 8.08517C35.3692 7.97719 35.4497 7.82251 35.4643 7.65515C35.4789 7.48779 35.4265 7.32146 35.3184 7.19284C35.2105 7.06407 35.0558 6.98362 34.8885 6.969Z" fill="#375061"/>
<path d="M12.1811 20.2713C11.9569 20.2213 11.7232 20.2966 11.5703 20.468L2.70364 29.968C2.54318 30.1323 2.48425 30.3707 2.54971 30.5908C2.61517 30.8111 2.7947 30.9785 3.01884 31.0285C3.24306 31.0785 3.4767 31.0033 3.62959 30.8318L12.4963 21.3318C12.6567 21.1675 12.7157 20.9291 12.6502 20.709C12.5847 20.4889 12.4053 20.3213 12.1811 20.2713Z" fill="#375061"/>
<path d="M26.4297 20.468C26.2769 20.2966 26.0431 20.2213 25.8189 20.2713C25.5947 20.3213 25.4152 20.4889 25.3498 20.709C25.2843 20.9292 25.3433 21.1675 25.5037 21.3318L34.3704 30.8318C34.6109 31.0781 35.0039 31.0873 35.2556 30.8525C35.5073 30.6176 35.5254 30.2249 35.2964 29.9679L26.4297 20.468Z" fill="#375061"/>
</svg>
