<svg width="38" height="38" viewBox="0 0 38 38" fill="none" xmlns="http://www.w3.org/2000/svg">
<g clip-path="url(#clip0)">
<path d="M22.0254 34.9414H17.2118C16.4078 34.9414 15.7537 34.2886 15.7537 33.4862V22.65H12.9454C12.1413 22.65 11.4873 21.997 11.4873 21.1948V16.5514C11.4873 15.749 12.1413 15.0962 12.9454 15.0962H15.7537V12.771C15.7537 10.4655 16.4791 8.50395 17.8512 7.09885C19.2294 5.68733 21.1556 4.94141 23.4214 4.94141L27.0925 4.94736C27.8951 4.94873 28.548 5.6015 28.548 6.40259V10.7138C28.548 11.5163 27.8942 12.169 27.0904 12.169L24.6187 12.17C23.8649 12.17 23.6729 12.3208 23.6319 12.367C23.5642 12.4437 23.4837 12.6604 23.4837 13.259V15.096H26.9047C27.1622 15.096 27.4117 15.1594 27.6261 15.2789C28.0887 15.5368 28.3763 16.0246 28.3763 16.5517L28.3744 21.195C28.3744 21.997 27.7204 22.6498 26.9164 22.6498H23.4837V33.4862C23.4837 34.2886 22.8295 34.9414 22.0254 34.9414ZM17.5159 33.1827H21.7213V21.8626C21.7213 21.3268 22.1582 20.891 22.6948 20.891H26.6123L26.6139 16.8549H22.6946C22.158 16.8549 21.7213 16.4191 21.7213 15.8833V13.259C21.7213 12.5719 21.7913 11.7905 22.311 11.2032C22.9389 10.4932 23.9284 10.4112 24.6182 10.4112L26.7859 10.4103V6.70563L23.42 6.70013C19.7787 6.70013 17.5159 9.02649 17.5159 12.771V15.8833C17.5159 16.4189 17.0793 16.8549 16.5426 16.8549H13.2494V20.891H16.5426C17.0793 20.891 17.5159 21.3268 17.5159 21.8626V33.1827ZM27.089 6.70609H27.0893H27.089Z" fill="#375061"/>
</g>
<defs>
<clipPath id="clip0">
<rect x="5" y="5" width="30" height="30" fill="white"/>
</clipPath>
</defs>
</svg>
